name rise30.6535peak61.5555fall82.9339.mot
datacolumns 19
datarows 14
range 21.64159100000000 21.66324600000000
endheader
time	ground_force1_vx	ground_force1_vy	ground_force1_vz	ground_force1_px	ground_force1_py	ground_force1_pz	ground_force2_vx	ground_force2_vy	ground_force2_vz	ground_force2_px	ground_force2_py	ground_force2_pz	ground_torque1_x	ground_torque1_y	ground_torque1_z	ground_torque2_x	ground_torque2_y	ground_torque2_z	
21.64159100000000	-7.09305600000000	42.22279200000000	-13.15914600000000	0.34769600000000	0.00000000000000	0.03747800000000	-65.27907700000000	777.03754900000001	-52.01225700000000	0.12744700000000	0.00000000000000	-0.11592600000000	0.00000000000000	-10.04112600000000	0.00000000000000	0.00000000000000	-25.61366300000000	0.00000000000000	
21.64324300000000	-7.62394600000000	49.57617900000000	-14.73641200000000	0.35249700000000	0.00000000000000	0.03979800000000	-66.15125800000000	773.51241000000005	-51.60669300000000	0.12659200000000	0.00000000000000	-0.11582600000000	0.00000000000000	-11.32049000000000	0.00000000000000	0.00000000000000	-25.65821400000000	0.00000000000000	
21.64491100000000	-7.98021700000000	57.05115300000000	-16.14986500000000	0.35678800000000	0.00000000000000	0.04189300000000	-67.03766400000001	769.86947699999996	-51.18029600000000	0.12572900000000	0.00000000000000	-0.11572200000000	0.00000000000000	-12.48698500000000	0.00000000000000	0.00000000000000	-25.70459900000000	0.00000000000000	
21.64658700000000	-8.14283200000000	64.55584200000000	-17.36554100000000	0.36064800000000	0.00000000000000	0.04379800000000	-67.93662200000000	766.10527999999999	-50.73272000000000	0.12486000000000	0.00000000000000	-0.11561400000000	0.00000000000000	-13.51279700000000	0.00000000000000	0.00000000000000	-25.75240100000000	0.00000000000000	
21.64824400000000	-8.10188600000000	72.02103500000000	-18.36177900000000	0.36414000000000	0.00000000000000	0.04553900000000	-68.84632200000000	762.21628399999997	-50.26365300000000	0.12398300000000	0.00000000000000	-0.11550300000000	0.00000000000000	-14.37950100000000	0.00000000000000	0.00000000000000	-25.80117300000000	0.00000000000000	
21.64991600000000	-7.85629700000000	79.40239099999999	-19.12927400000000	0.36731700000000	0.00000000000000	0.04713800000000	-69.76482000000000	758.19889899999998	-49.77282500000000	0.12310000000000	0.00000000000000	-0.11538700000000	0.00000000000000	-15.07823700000000	0.00000000000000	0.00000000000000	-25.85044400000000	0.00000000000000	
21.65158700000000	-7.41283000000000	86.68022300000000	-19.67011100000000	0.37022100000000	0.00000000000000	0.04861400000000	-70.69004099999999	754.04950399999996	-49.26001000000000	0.12221000000000	0.00000000000000	-0.11526800000000	0.00000000000000	-15.60907200000000	0.00000000000000	0.00000000000000	-25.89971400000000	0.00000000000000	
21.65324300000000	-6.78464200000000	93.85728400000001	-19.99603300000000	0.37288600000000	0.00000000000000	0.04998100000000	-71.61978600000000	749.76445400000000	-48.72502700000000	0.12131400000000	0.00000000000000	-0.11514500000000	0.00000000000000	-15.97973100000000	0.00000000000000	0.00000000000000	-25.94846400000000	0.00000000000000	
21.65491000000000	-5.98954600000000	100.95506800000000	-20.12621200000000	0.37534400000000	0.00000000000000	0.05125300000000	-72.55173200000000	745.34010400000000	-48.16774800000000	0.12041200000000	0.00000000000000	-0.11501800000000	0.00000000000000	-16.20392500000000	0.00000000000000	0.00000000000000	-25.99614800000000	0.00000000000000	
21.65657700000000	-5.04819600000000	108.00921700000001	-20.08479000000000	0.37761800000000	0.00000000000000	0.05243800000000	-73.48344299999999	740.77282500000001	-47.58809600000000	0.11950400000000	0.00000000000000	-0.11488700000000	0.00000000000000	-16.29946600000000	0.00000000000000	0.00000000000000	-26.04220200000000	0.00000000000000	
21.65824500000000	-3.98234600000000	115.06453600000000	-19.89844800000000	0.37973100000000	0.00000000000000	0.05354800000000	-74.41237400000000	736.05902500000002	-46.98604900000000	0.11859100000000	0.00000000000000	-0.11475300000000	0.00000000000000	-16.28637700000000	0.00000000000000	0.00000000000000	-26.08604300000000	0.00000000000000	
21.65991200000000	-2.81331800000000	122.17012500000000	-19.59417700000000	0.38169900000000	0.00000000000000	0.05458800000000	-75.33587700000000	731.19517199999996	-46.36164400000000	0.11767300000000	0.00000000000000	-0.11461400000000	0.00000000000000	-16.18514000000000	0.00000000000000	0.00000000000000	-26.12707100000000	0.00000000000000	
21.66157600000000	-1.56075600000000	129.37496600000000	-19.19740800000000	0.38354000000000	0.00000000000000	0.05556600000000	-76.25120900000000	726.17781100000002	-45.71497800000000	0.11675200000000	0.00000000000000	-0.11447100000000	0.00000000000000	-16.01521700000000	0.00000000000000	0.00000000000000	-26.16467200000000	0.00000000000000	
21.66324600000000	-0.24173000000000	136.72425400000000	-18.73058100000000	0.38526500000000	0.00000000000000	0.05648700000000	-77.15554400000001	721.00358900000003	-45.04621100000000	0.11582600000000	0.00000000000000	-0.11432500000000	0.00000000000000	-15.79389400000000	0.00000000000000	0.00000000000000	-26.19821900000000	0.00000000000000	
